<svg width="43" height="43" viewBox="0 0 43 43" fill="none" xmlns="http://www.w3.org/2000/svg">
<path d="M6.79118 28.9208C5.28317 22.8888 4.52917 19.8746 6.11275 17.8464C7.69633 15.8181 10.8055 15.8181 17.022 15.8181H25.1596C31.3779 15.8181 34.4853 15.8181 36.0689 17.8464C37.6524 19.8746 36.8984 22.8906 35.3904 28.9208C34.4308 32.7576 33.9528 34.6751 32.5221 35.793C31.0914 36.909 29.1141 36.909 25.1596 36.909H17.022C13.0675 36.909 11.0902 36.909 9.65954 35.793C8.22887 34.6751 7.74905 32.7576 6.79118 28.9208Z" fill="white" stroke="white" stroke-width="1.5"/>
<path d="M34.2726 16.6969L33.0247 12.1185C32.5431 10.3521 32.3023 9.46979 31.8085 8.80367C31.316 8.14188 30.6472 7.63207 29.8786 7.33258C29.1053 7.03027 28.1914 7.03027 26.3635 7.03027M7.90894 16.6969L9.15681 12.1185C9.63839 10.3521 9.87918 9.46979 10.3731 8.80367C10.8655 8.14188 11.5343 7.63207 12.3029 7.33258C13.0762 7.03027 13.9901 7.03027 15.818 7.03027" stroke="white" stroke-width="1.5"/>
<path d="M15.8181 7.03028C15.8181 6.56414 16.0033 6.1171 16.3329 5.78749C16.6625 5.45788 17.1096 5.27271 17.5757 5.27271H24.606C25.0721 5.27271 25.5192 5.45788 25.8488 5.78749C26.1784 6.1171 26.3636 6.56414 26.3636 7.03028C26.3636 7.49642 26.1784 7.94347 25.8488 8.27307C25.5192 8.60268 25.0721 8.78786 24.606 8.78786H17.5757C17.1096 8.78786 16.6625 8.60268 16.3329 8.27307C16.0033 7.94347 15.8181 7.49642 15.8181 7.03028Z" stroke="white" stroke-width="1.5"/>
<path d="M14.0605 22.8485V29.8788M28.1212 22.8485V29.8788M21.0909 22.8485V29.8788" stroke="#5E2A14" stroke-width="1.5" stroke-linecap="round" stroke-linejoin="round"/>
</svg>
