<svg width="109" height="90" viewBox="0 0 109 90" fill="none" xmlns="http://www.w3.org/2000/svg">
<path d="M16.6724 24.1671C17.0571 24.4964 17.3239 24.9371 17.3816 25.4466C17.3852 25.4696 17.3887 25.4926 17.3924 25.5164C17.4204 25.8401 17.2603 26.1147 17.1281 26.4003C17.1017 26.4587 17.0753 26.5172 17.049 26.5757C16.9943 26.6972 16.9393 26.8185 16.8841 26.9397C16.769 27.193 16.6576 27.4478 16.5462 27.7027C16.5102 27.7851 16.4741 27.8674 16.4379 27.9498C16.2629 28.3482 16.0889 28.7471 15.9152 29.1461C15.7882 29.4378 15.6609 29.7293 15.5327 30.0205C15.2794 30.5959 15.028 31.172 14.7811 31.7502C14.5841 32.2114 14.3849 32.6715 14.1849 33.1313C13.9232 33.7329 13.6637 34.3351 13.4121 34.941C13.3486 35.0938 13.2847 35.2464 13.2207 35.399C13.1089 35.6657 12.9973 35.9325 12.8857 36.1993C12.8281 36.3368 12.7706 36.4744 12.713 36.6119C12.4175 37.3174 12.127 38.0247 11.8414 38.7343C11.8132 38.8043 11.785 38.8742 11.7568 38.9442C10.5661 41.8994 9.45055 44.885 6.14672 56.0609C6.93647 55.4837 7.71611 54.8921 8.47276 54.272C8.5234 54.2305 8.57418 54.1892 8.62497 54.1479C8.80034 54.0052 8.97352 53.8602 9.14571 53.7137C9.25682 53.6194 9.36918 53.5269 9.48258 53.4353C9.63384 53.3123 9.77737 53.1824 9.92069 53.0504C10.0099 52.9704 10.1015 52.8947 10.1948 52.8196C10.316 52.7218 10.4276 52.6208 10.5359 52.509C10.6114 52.4332 10.6923 52.3643 10.7733 52.2944C10.9113 52.1736 11.0457 52.0486 11.1806 51.9243C11.2342 51.8749 11.288 51.8256 11.3418 51.7764C11.5137 51.6187 11.6832 51.46 11.8467 51.2935C11.9031 51.238 11.9609 51.1868 12.0213 51.1358C12.2059 50.9751 12.3772 50.8009 12.55 50.6277C12.5866 50.5911 12.6232 50.5545 12.6598 50.5179C12.7362 50.4416 12.8125 50.3652 12.8888 50.2888C12.986 50.1914 13.0833 50.0942 13.1806 49.9971C13.2561 49.9217 13.3316 49.8462 13.407 49.7707C13.4429 49.7348 13.4787 49.699 13.5146 49.6632C13.6888 49.4892 13.8615 49.3152 14.021 49.1273C14.1166 49.0165 14.2238 48.917 14.3284 48.8148C14.4192 48.7242 14.5024 48.6278 14.5863 48.5309C14.7032 48.3978 14.826 48.2703 14.9478 48.1418C15.0686 48.0136 15.1863 47.8834 15.3018 47.7504C15.3715 47.6705 15.4429 47.5922 15.5145 47.514C15.7248 47.2832 15.9287 47.0473 16.1316 46.8101C16.2367 46.6872 16.3425 46.5649 16.4487 46.4429C16.6093 46.2585 16.767 46.0724 16.9209 45.8823C17.0092 45.7749 17.0997 45.6697 17.1905 45.5644C17.3197 45.4144 17.4462 45.2628 17.569 45.1074C17.6413 45.0164 17.7146 44.9263 17.7881 44.8362C17.9844 44.5955 18.1778 44.3529 18.369 44.1081C18.4256 44.0357 18.4826 43.9634 18.5395 43.8911C18.6151 43.7951 18.6905 43.6989 18.7659 43.6027C18.7829 43.581 18.8 43.5593 18.8175 43.5369C19.0958 43.1818 19.3685 42.8228 19.6383 42.4612C19.6995 42.3793 19.761 42.2976 19.8225 42.216C20.0687 41.8892 20.311 41.56 20.5495 41.2276C20.6361 41.107 20.7231 40.9867 20.81 40.8664C20.8273 40.8426 20.8445 40.8187 20.8622 40.7941C20.95 40.6725 21.038 40.5509 21.1262 40.4296C21.3384 40.1374 21.5462 39.8427 21.7495 39.5443C21.8043 39.464 21.8595 39.384 21.9147 39.304C22.7225 38.132 23.5104 36.9466 24.2748 35.7459C24.334 35.6531 24.3932 35.5604 24.4525 35.4677C24.6876 35.0996 24.9195 34.7297 25.1484 34.3577C25.2074 34.2619 25.2666 34.1661 25.3257 34.0703C25.7685 33.3526 26.2077 32.6328 26.6349 31.9057C26.7031 31.7899 26.7716 31.6743 26.84 31.5587C27.3215 30.7454 27.7946 29.9272 28.2641 29.1069C28.2964 29.0504 28.3289 28.994 28.3613 28.9376C28.469 28.7499 28.5742 28.5613 28.6758 28.3701C28.6956 28.3332 28.7155 28.2963 28.7359 28.2583C28.7733 28.1886 28.8101 28.1186 28.8462 28.0482C28.9538 27.8486 29.042 27.7387 29.2604 27.6678C29.2995 27.6545 29.3387 27.6413 29.3791 27.6276C29.6834 27.5618 29.9862 27.5745 30.2583 27.7322C30.6057 27.9721 30.7683 28.3157 30.8566 28.7198C30.9124 29.1673 30.903 29.6267 30.7412 30.05C30.7308 30.0772 30.7204 30.1044 30.7097 30.1325C30.2869 31.2194 29.7322 32.2645 29.1514 33.2746C29.078 33.4033 29.0063 33.533 28.9345 33.6626C28.7292 34.0324 28.5156 34.3965 28.2966 34.7584C28.2012 34.9163 28.1068 35.0747 28.0129 35.2335C27.9999 35.2556 27.9869 35.2777 27.9734 35.3004C27.9603 35.3226 27.9472 35.3447 27.9337 35.3676C27.7301 35.7121 27.5261 36.0559 27.3104 36.3931C27.1852 36.5888 27.0634 36.7864 26.9421 36.9846C26.7605 37.281 26.577 37.5758 26.3867 37.8667C26.3311 37.9517 26.2758 38.0368 26.2208 38.1222C26.0012 38.4634 25.7775 38.8018 25.5523 39.1393C25.4939 39.2267 25.4357 39.3141 25.3775 39.4015C25.1509 39.7416 24.922 40.0799 24.6891 40.4157C24.6684 40.4457 24.6476 40.4757 24.6262 40.5066C24.5735 40.5824 24.5207 40.6581 24.4678 40.7336C24.4397 40.7738 24.4397 40.7738 24.4111 40.8147C24.2485 41.0464 24.0831 41.276 23.9169 41.5051C23.8439 41.6059 23.7714 41.707 23.6993 41.8085C23.3693 42.273 23.0285 42.7293 22.681 43.1808C22.6278 43.25 22.575 43.3192 22.5221 43.3886C22.2184 43.7871 21.9105 44.1814 21.5936 44.5695C21.4796 44.7094 21.3676 44.8506 21.2567 44.993C21.1136 45.1766 20.9648 45.3547 20.8137 45.5317C20.7367 45.622 20.6615 45.7137 20.5867 45.8058C20.4291 45.9993 20.2665 46.1883 20.1037 46.3773C20.0537 46.4354 20.004 46.4937 19.9543 46.552C19.7786 46.7584 19.6004 46.9617 19.4173 47.1615C19.3357 47.2509 19.2561 47.3419 19.1767 47.4332C18.963 47.6772 18.7431 47.9159 18.5235 48.1546C18.4742 48.2083 18.4249 48.262 18.3757 48.3158C18.2261 48.4787 18.0762 48.6406 17.9181 48.7953C17.8664 48.848 17.8189 48.9026 17.7713 48.959C17.5987 49.1572 17.4107 49.3406 17.2248 49.5261C17.1846 49.5664 17.1444 49.6066 17.1042 49.6468C17.0203 49.7308 16.9363 49.8147 16.8523 49.8985C16.7453 50.0054 16.6383 50.1125 16.5314 50.2195C16.4486 50.3025 16.3656 50.3855 16.2826 50.4684C16.2432 50.5078 16.2038 50.5472 16.1644 50.5867C15.7934 50.9582 15.7934 50.9582 15.5954 51.1262C15.5327 51.1797 15.4751 51.2373 15.4179 51.2965C15.3187 51.3971 15.2159 51.4906 15.1088 51.5826C15.0062 51.6731 14.9063 51.7665 14.8063 51.8599C14.6477 52.0077 14.4882 52.1536 14.3234 52.2945C14.2905 52.3227 14.2576 52.3509 14.2247 52.3791C14.1678 52.4279 14.1108 52.4767 14.0539 52.5254C13.9322 52.6296 13.811 52.7342 13.6901 52.8392C13.3645 53.1221 13.0387 53.4033 12.698 53.668C12.5465 53.7861 12.3987 53.908 12.2511 54.0308C12.0377 54.2078 11.8197 54.3765 11.5969 54.5414C11.465 54.6391 11.3347 54.7387 11.2044 54.8386C10.9357 55.0444 10.6657 55.2471 10.3886 55.4414C10.3258 55.4856 10.2632 55.53 10.2006 55.5744C9.2545 56.2455 8.28793 56.8855 7.29757 57.4894C7.27806 57.5014 7.25856 57.5133 7.23846 57.5256C7.18296 57.5595 7.12735 57.5933 7.07173 57.627C7.03993 57.6463 7.00813 57.6656 6.97537 57.6855C6.89381 57.7312 6.81373 57.767 6.72617 57.7993C6.75226 58.0075 6.80263 58.2039 6.87279 58.4015C6.88118 58.4251 6.88957 58.4488 6.89821 58.4731C7.00308 58.762 7.12972 59.0409 7.25733 59.3203C7.28305 59.377 7.30877 59.4337 7.33449 59.4903C8.18093 61.3504 9.20045 63.3838 11.2198 64.1766C12.9762 64.8286 15.0997 64.4833 16.77 63.7226C17.3462 63.4533 17.8994 63.1499 18.444 62.8212C18.4761 62.8019 18.5083 62.7826 18.5415 62.7628C18.9001 62.548 19.2557 62.33 19.6008 62.0939C19.6782 62.0411 19.756 61.9886 19.8337 61.9362C20.2126 61.68 20.586 61.4175 20.9549 61.1472C21.0069 61.1093 21.0589 61.0713 21.111 61.0334C21.5768 60.6928 22.0276 60.3362 22.4744 59.9712C22.525 59.9299 22.5758 59.8888 22.6266 59.8477C23.133 59.4375 23.6206 59.0046 24.0775 58.5397C24.1606 58.4562 24.2441 58.3732 24.3285 58.291C24.5395 58.0847 24.7347 57.8729 24.9145 57.6383C24.9277 57.6215 24.9409 57.6047 24.9545 57.5873C25.3984 57.0178 25.5695 56.3596 25.7589 55.6726C25.7651 55.6502 25.7713 55.6277 25.7777 55.6046C25.8083 55.4942 25.8386 55.3838 25.8683 55.2732C26.1919 54.0835 26.8504 52.9882 27.6778 52.0813C27.741 52.0118 27.8027 51.9412 27.8641 51.87C28.0737 51.6306 28.3035 51.4306 28.5522 51.2322C28.586 51.2043 28.6198 51.1764 28.6536 51.1485C30.0269 50.0265 31.7799 49.5062 33.5415 49.6696C33.7043 49.6889 33.8644 49.7178 34.0247 49.7513C34.0545 49.7574 34.0843 49.7635 34.115 49.7697C34.7879 49.9107 35.4318 50.1479 36.026 50.4959C36.0605 50.5155 36.0605 50.5155 36.0957 50.5355C36.1155 50.5473 36.1354 50.5591 36.1558 50.5712C36.2159 50.5951 36.2159 50.5951 36.2822 50.5642C36.3692 50.5062 36.4011 50.4385 36.4512 50.3469C36.467 50.3184 36.467 50.3184 36.4831 50.2893C36.5596 50.1506 36.6335 50.0106 36.708 49.8708C36.7273 49.8346 36.7466 49.7985 36.7665 49.7612C36.8049 49.6893 36.843 49.6172 36.8809 49.5451C37.2278 48.8923 37.7261 48.1089 38.4682 47.872C38.9737 47.7277 39.5414 47.7626 40.0124 48.013C40.2431 48.1543 40.4976 48.369 40.5755 48.638C40.6608 49.0722 40.5479 49.4248 40.3907 49.8238C40.3689 49.8809 40.3472 49.938 40.3255 49.9952C40.2667 50.1501 40.2068 50.3045 40.1467 50.4589C40.0826 50.6242 40.0194 50.79 39.9562 50.9556C39.8075 51.3447 39.6573 51.7332 39.5071 52.1217C38.9518 53.5579 38.3991 54.9947 37.8878 56.4472C37.8784 56.4737 37.8691 56.5002 37.8595 56.5275C37.4139 57.7933 37.0216 59.0725 36.6967 60.3746C36.6913 60.396 36.6859 60.4174 36.6804 60.4394C36.1379 62.6097 35.3237 66.0395 36.4877 68.1231C36.5928 68.2923 36.5928 68.2923 36.761 68.3904C37.1345 68.4539 37.4928 68.2344 37.7912 68.0362C38.373 67.6217 38.9089 67.1004 39.3686 66.5554C39.3998 66.5197 39.4311 66.4841 39.4624 66.4485C39.6502 66.2347 39.833 66.0185 40.0072 65.7935C40.1007 65.6728 40.1963 65.5542 40.2936 65.4365C40.8852 64.7185 41.3895 63.9326 41.8795 63.1431C41.8982 63.113 41.917 63.083 41.9363 63.052C42.2773 62.5036 42.6084 61.9495 42.9368 61.3935C42.9981 61.2897 43.0595 61.1861 43.121 61.0826C43.5369 60.3821 43.9431 59.6772 44.3261 58.9582C44.3405 58.9313 44.3549 58.9044 44.3697 58.8766C44.4637 58.7006 44.5563 58.5238 44.648 58.3465C44.6629 58.3179 44.6777 58.2893 44.6931 58.2598C45.0498 57.5929 45.0498 57.5929 45.2275 56.8657C45.2053 56.863 45.1831 56.8602 45.1602 56.8574C45.0444 56.8279 44.9542 56.7734 44.8552 56.7088C44.8356 56.696 44.8159 56.6832 44.7957 56.67C44.5868 56.5302 44.4071 56.3668 44.2295 56.1897C44.2037 56.1646 44.1779 56.1396 44.1513 56.1137C43.5848 55.5296 43.3261 54.6441 43.3216 53.8447C43.3213 53.8043 43.3213 53.8043 43.3209 53.763C43.3172 53.1924 43.3151 52.6313 43.4247 52.0691C43.4313 52.0347 43.4379 52.0003 43.4446 51.9649C43.6654 50.8297 43.9626 49.6311 44.4871 48.5924C44.4971 48.5718 44.5072 48.5512 44.5176 48.53C44.8273 47.8999 45.2457 47.3007 45.9216 47.0332C46.445 46.8763 46.9655 47.0024 47.4386 47.2464C47.8727 47.4811 48.2514 47.79 48.4144 48.2705C48.6392 49.1981 47.9556 50.1682 47.5264 50.9295C46.898 52.0562 46.6256 53.4089 46.2898 54.6445C46.33 54.6403 46.3703 54.6361 46.4117 54.6318C46.4344 54.6295 46.457 54.6271 46.4803 54.6247C46.5909 54.6042 46.6702 54.5477 46.7626 54.4855C46.7818 54.4727 46.801 54.4599 46.8207 54.4466C47.2068 54.1846 47.5667 53.885 47.9214 53.5826C48.1016 53.429 48.2848 53.2804 48.4718 53.1352C48.5966 53.038 48.7173 52.9371 48.837 52.8337C50.7675 51.1798 50.7675 51.1798 51.8738 51.191C52.3262 51.2265 52.7617 51.4567 53.057 51.7973C53.5472 52.4123 53.6408 53.1439 53.5579 53.9064C53.3521 55.5688 52.8317 57.1818 52.3429 58.7769C51.0727 62.913 51.0727 62.913 51.3439 67.8753C51.464 68.0918 51.5928 68.2632 51.8227 68.3682C52.2067 68.4527 52.5635 68.3026 52.8881 68.1019C53.2137 67.8828 53.5081 67.6323 53.7905 67.3602C53.8224 67.3296 53.8224 67.3296 53.8549 67.2984C54.144 67.0198 54.4134 66.7373 54.6526 66.4147C54.7158 66.3303 54.7816 66.248 54.8468 66.1651C57.7828 62.3811 57.7828 62.3811 59.0386 57.9535C59.0216 55.7944 60.0933 53.3246 61.5757 51.7569C61.6357 51.693 61.6932 51.6278 61.7505 51.5614C62.0502 51.2176 62.3783 50.8986 62.7398 50.6205C62.7705 50.5957 62.8013 50.5708 62.8329 50.5452C64.1433 49.5018 65.7865 48.9278 67.4682 49.0913C68.7575 49.2418 69.9658 49.7859 70.9808 50.5883C71.0914 50.3443 71.1904 50.0994 71.2753 49.8453C71.2881 49.8071 71.2881 49.8071 71.3011 49.7681C71.336 49.6634 71.3706 49.5585 71.4049 49.4535C71.8058 48.2306 71.8058 48.2306 72.3007 47.8842C72.3195 47.8709 72.3384 47.8576 72.3578 47.8439C72.6442 47.6814 73.0484 47.7117 73.357 47.791C73.6495 47.878 73.9153 48.002 74.1678 48.174C74.1871 48.1867 74.2064 48.1995 74.2263 48.2127C74.5648 48.4637 74.7498 48.9284 74.8117 49.3329C74.9762 50.4697 74.5916 51.6268 74.3007 52.7126C74.2909 52.7495 74.281 52.7864 74.2708 52.8244C74.25 52.9018 74.2292 52.9792 74.2084 53.0566C74.1439 53.2973 74.0818 53.5385 74.0217 53.7803C73.5383 55.7214 72.938 57.6276 72.3315 59.533C72.3248 59.554 72.3181 59.575 72.3112 59.5967C72.291 59.6603 72.2707 59.7239 72.2505 59.7876C72.2438 59.8085 72.2371 59.8295 72.2303 59.8511C72.1969 59.9558 72.1636 60.0606 72.1302 60.1653C71.825 61.1233 71.5308 62.0846 71.2384 63.0465C71.8516 62.7064 71.8516 62.7064 72.4556 62.3504C72.5162 62.3137 72.5768 62.2771 72.6373 62.2405C72.6856 62.2111 72.6856 62.2111 72.7348 62.1812C72.8207 62.1292 72.9071 62.0779 72.9935 62.0268C73.3508 61.8151 73.7001 61.5943 74.0449 61.3629C74.1237 61.3101 74.2026 61.2576 74.2815 61.2051C75.04 60.6991 75.7655 60.1572 76.4405 59.5435C76.4935 59.4954 76.5467 59.4475 76.6002 59.3999C77.1965 58.8689 77.7521 58.2402 77.9803 57.4587C77.9905 57.4237 77.9905 57.4237 78.001 57.388C78.0797 57.1092 78.1324 56.8255 78.1861 56.541C78.4224 55.2947 78.7995 54.1336 79.3813 53.0041C79.4165 52.9355 79.4511 52.8665 79.4857 52.7976C79.805 52.169 80.1869 51.5733 80.6062 51.0068C80.623 50.9841 80.6398 50.9613 80.6572 50.9378C80.8959 50.617 81.1455 50.3079 81.411 50.0089C81.4386 49.9777 81.4661 49.9465 81.4946 49.9143C81.8573 49.5116 82.2353 49.1154 82.6664 48.7856C82.7074 48.753 82.7484 48.7204 82.7893 48.6878C83.6043 48.0435 84.5293 47.5578 85.5637 47.4014C85.5892 47.3971 85.6146 47.3929 85.6409 47.3885C86.5014 47.2665 87.4807 47.4546 88.201 47.9489C88.2803 48.0102 88.3548 48.0741 88.4288 48.1418C88.4511 48.1611 88.4734 48.1805 88.4964 48.2005C88.9849 48.6503 89.1716 49.3153 89.2055 49.9588C89.2327 51.1445 88.7494 52.338 88.0746 53.2924C88.0505 53.3266 88.0264 53.3608 88.0016 53.3961C87.5997 53.9464 87.1331 54.4522 86.5938 54.8698C86.5622 54.8951 86.5307 54.9205 86.4981 54.9465C85.2005 55.9789 83.6418 56.5504 82.0226 56.8335C81.4459 58.5968 81.121 60.97 81.9904 62.6924C82.0663 62.8283 82.1544 62.9544 82.2479 63.0787C82.2626 63.0997 82.2773 63.1206 82.2925 63.1422C82.5768 63.5159 83.0826 63.7479 83.5356 63.8191C85.2591 63.9575 86.7724 62.9647 88.0746 61.952C88.0941 61.937 88.1135 61.9219 88.1336 61.9064C88.7269 61.4469 89.3051 60.9669 89.8554 60.4564C89.9234 60.3942 89.9923 60.3331 90.0611 60.2718C90.9912 59.4954 90.9912 59.4954 91.4908 58.4416C91.4907 58.4182 91.4906 58.3948 91.4905 58.3707C91.4905 58.3439 91.4906 58.317 91.4906 58.2893C91.4905 58.2604 91.4904 58.2314 91.4904 58.2015C91.4934 57.4936 91.5125 56.841 91.7123 56.1575C91.7324 56.0831 91.7523 56.0087 91.7722 55.9343C92.0699 54.835 92.4923 53.7956 93 52.7774C93.0147 52.7477 93.0295 52.718 93.0447 52.6875C93.4904 51.7989 94.0432 50.9698 94.6739 50.202C94.6994 50.1706 94.7248 50.1391 94.751 50.1067C94.9593 49.8538 95.1854 49.6193 95.4164 49.3872C95.4456 49.3576 95.4749 49.328 95.5051 49.2975C96.4133 48.3934 97.524 47.7814 98.7623 47.4657C98.7846 47.4599 98.8069 47.454 98.8298 47.448C99.6822 47.2316 100.672 47.3094 101.434 47.7555C101.551 47.8332 101.654 47.9176 101.756 48.013C101.793 48.0456 101.793 48.0456 101.831 48.0789C102.379 48.5881 102.6 49.3494 102.629 50.0774C102.642 50.7888 102.484 51.4806 102.207 52.1335C102.198 52.1553 102.188 52.1771 102.179 52.1995C101.866 52.9217 101.42 53.5771 100.873 54.1422C100.837 54.1791 100.801 54.2162 100.766 54.2535C100.455 54.5807 100.129 54.8661 99.7602 55.1274C99.7305 55.1486 99.7305 55.1486 99.7001 55.1703C98.6237 55.9312 96.8444 56.8979 95.4787 56.8979C95.4703 56.938 95.4619 56.978 95.4532 57.0193C95.4274 57.1358 95.3974 57.2504 95.3644 57.3651C94.8884 59.0238 94.6501 61.0965 95.4767 62.6904C95.5701 62.8534 95.6812 62.9985 95.8007 63.1431C95.8209 63.1698 95.8411 63.1965 95.8619 63.224C96.162 63.5799 96.6662 63.7951 97.1205 63.8513C98.5268 63.9571 99.7793 63.262 100.887 62.4671C100.911 62.4499 100.935 62.4327 100.96 62.415C101.334 62.1462 101.694 61.8633 102.046 61.5657C102.066 61.5487 102.086 61.5317 102.107 61.5141C102.339 61.3183 102.567 61.118 102.789 60.9112C102.862 60.8448 102.935 60.7797 103.009 60.7151C103.431 60.3467 103.826 59.9495 104.223 59.5537C104.246 59.5311 104.268 59.5084 104.292 59.4851C104.358 59.4192 104.424 59.3532 104.49 59.2871C104.509 59.2676 104.529 59.248 104.549 59.2278C104.668 59.1081 104.781 58.9846 104.891 58.8564C104.944 58.7966 104.999 58.7404 105.056 58.6845C105.175 58.5666 105.285 58.4419 105.394 58.3143C105.419 58.2853 105.445 58.2563 105.471 58.2264C105.666 58.0021 105.845 57.7683 106.02 57.528C106.163 57.332 106.309 57.1386 106.456 56.9462C106.621 56.7305 106.784 56.5135 106.945 56.2943C107.218 55.9214 107.496 55.5508 107.788 55.1922C107.821 55.1517 107.853 55.1105 107.884 55.0685C107.978 54.9437 108.074 54.8701 108.227 54.8376C108.475 54.8123 108.67 54.8097 108.87 54.9664C108.969 55.0579 108.985 55.1511 109 55.2828C108.999 55.4014 108.947 55.4951 108.891 55.5962C108.876 55.6252 108.876 55.6252 108.86 55.6548C108.645 56.0627 108.391 56.4493 108.134 56.8315C108.105 56.8742 108.077 56.9169 108.048 56.9596C107.968 57.0787 107.888 57.1976 107.808 57.3164C107.789 57.3444 107.77 57.3724 107.751 57.4012C107.421 57.8888 107.077 58.3659 106.714 58.8294C106.684 58.8672 106.655 58.905 106.625 58.9428C106.345 59.3013 106.057 59.6521 105.762 59.9982C105.716 60.0525 105.67 60.1069 105.624 60.1613C105.306 60.5385 104.97 60.8997 104.618 61.2458C104.558 61.3073 104.502 61.3711 104.446 61.4369C104.338 61.5628 104.218 61.6701 104.094 61.7795C104.008 61.8572 103.926 61.9379 103.845 62.0204C103.735 62.1309 103.624 62.2367 103.506 62.3377C103.445 62.3895 103.386 62.442 103.326 62.4949C103.049 62.7393 102.763 62.9674 102.468 63.1886C102.402 63.2384 102.336 63.2888 102.27 63.3394C101.801 63.6986 101.305 64.0122 100.79 64.302C100.766 64.3161 100.741 64.3302 100.715 64.3447C100.012 64.7399 99.2618 65.0342 98.4726 65.2034C98.4473 65.2088 98.422 65.2143 98.396 65.2199C97.1228 65.4854 95.7703 65.2799 94.6682 64.5794C94.0465 64.169 93.4893 63.6674 93.0322 63.0787C93.0064 63.0464 92.9807 63.014 92.9542 62.9806C92.4239 62.3088 91.9979 61.5574 91.6157 60.7931C91.5955 60.8156 91.5752 60.8382 91.5543 60.8614C91.331 61.1083 91.0998 61.3463 90.864 61.5813C90.8045 61.6405 90.7453 61.7 90.686 61.7594C90.497 61.9486 90.3067 62.1329 90.1027 62.3061C90.0456 62.3583 89.9885 62.4106 89.9317 62.4631C89.789 62.5931 89.6431 62.7174 89.4927 62.8384C89.4209 62.8964 89.3499 62.9549 89.2792 63.0142C88.9786 63.2648 88.6659 63.4898 88.3401 63.7064C88.273 63.7513 88.2063 63.7967 88.1398 63.8424C87.8784 64.0211 87.6102 64.1814 87.332 64.3324C87.2737 64.3643 87.216 64.3973 87.1583 64.4304C86.3889 64.8622 85.507 65.1625 84.6301 65.2678C84.6054 65.2707 84.5806 65.2737 84.5551 65.2768C83.0464 65.4436 81.5887 64.9706 80.4094 64.0293C79.3566 63.1764 78.8491 62.1885 78.3958 60.935C78.3536 60.8183 78.3105 60.7019 78.266 60.586C78.2528 60.5514 78.2528 60.5514 78.2392 60.516C78.2225 60.4724 78.2056 60.4289 78.1886 60.3854C78.1422 60.2643 78.1121 60.1491 78.0952 60.0205C77.9166 60.0273 77.8373 60.0641 77.7144 60.1929C77.6973 60.2117 77.6802 60.2305 77.6626 60.2499C77.6258 60.2885 77.589 60.3271 77.5521 60.3656C77.5346 60.384 77.5172 60.4025 77.4992 60.4215C77.4038 60.5207 77.2991 60.6081 77.1938 60.6965C77.1643 60.7221 77.1348 60.7477 77.1044 60.774C75.6861 61.9985 74.041 62.9296 72.428 63.868C72.0739 64.074 71.7207 64.2813 71.3683 64.4901C71.3224 64.5173 71.2764 64.5446 71.2305 64.5718C71.1659 64.61 71.1014 64.6482 71.0369 64.6865C71.0178 64.6978 70.9988 64.7091 70.9791 64.7207C70.8886 64.7746 70.8007 64.8302 70.7138 64.8896C70.6267 64.9458 70.6267 64.9458 70.5623 64.9458C70.5574 64.9641 70.5524 64.9825 70.5473 65.0013C70.4797 65.2397 70.3879 65.4645 70.2915 65.6924C70.2565 65.7759 70.2217 65.8594 70.1868 65.9429C70.1779 65.9643 70.169 65.9856 70.1598 66.0076C70.0655 66.2339 69.9743 66.4614 69.8836 66.6891C69.8754 66.7095 69.8673 66.7299 69.8589 66.7509C69.8169 66.8562 69.775 66.9614 69.7331 67.0667C69.6424 67.2945 69.5514 67.5221 69.4604 67.7498C69.4512 67.7727 69.4421 67.7957 69.4326 67.8194C68.6123 69.8706 67.769 71.9135 66.8603 73.9273C66.8501 73.95 66.8399 73.9727 66.8293 73.9961C66.3557 75.0463 65.8634 76.0873 65.3493 77.1183C65.3343 77.1485 65.3193 77.1788 65.3038 77.2099C65.0946 77.6301 64.875 78.0436 64.6485 78.4548C64.5937 78.5547 64.5399 78.6552 64.4864 78.7558C64.2372 79.2242 63.9766 79.6843 63.7055 80.1403C63.6829 80.1786 63.6602 80.2168 63.6376 80.2551C63.1803 81.0271 62.7063 81.7865 62.1925 82.5225C62.1762 82.5459 62.16 82.5693 62.1433 82.5934C61.9094 82.9294 61.6679 83.259 61.4199 83.5848C61.3984 83.6132 61.3984 83.6132 61.3764 83.6422C61.1921 83.8848 61.0033 84.1233 60.8083 84.3574C60.7875 84.3823 60.7875 84.3823 60.7664 84.4077C60.5863 84.6237 60.4028 84.8354 60.2122 85.0421C60.1705 85.088 60.1289 85.134 60.0889 85.1813C59.906 85.3966 59.7051 85.5942 59.5052 85.7935C59.4423 85.8562 59.3795 85.9191 59.3168 85.9821C59.122 86.177 58.9277 86.3701 58.7158 86.5465C58.6955 86.5637 58.6753 86.581 58.6544 86.5988C57.9099 87.2311 57.1133 87.7565 56.237 88.1883C56.2143 88.1995 56.1915 88.2107 56.1681 88.2223C55.5032 88.5451 54.7704 88.7511 54.048 88.8965C54.0196 88.9022 53.9911 88.9079 53.9618 88.9138C53.2351 89.0524 52.387 89.0768 51.6658 88.8965C51.6324 88.8884 51.6324 88.8884 51.5983 88.8803C50.914 88.7126 50.339 88.3859 49.8309 87.8985C49.8044 87.8741 49.778 87.8497 49.7508 87.8246C48.8822 86.9979 48.4962 85.769 48.3179 84.615C48.3143 84.5919 48.3107 84.5688 48.307 84.545C47.8659 81.5793 48.8098 78.2874 50.4103 75.7944C50.4437 75.7422 50.4437 75.7422 50.4777 75.6889C50.5397 75.5943 50.6033 75.5011 50.6679 75.4081C50.682 75.3877 50.6961 75.3673 50.7106 75.3462C51.1195 74.7543 51.5672 74.2012 52.0521 73.6698C52.0777 73.6412 52.1032 73.6127 52.1296 73.5833C52.3098 73.3835 52.496 73.1904 52.6859 72.9998C52.7084 72.9771 52.731 72.9544 52.7542 72.931C52.8829 72.8027 53.0148 72.6802 53.1524 72.5616C53.2305 72.494 53.3062 72.424 53.382 72.354C53.5559 72.1956 53.7353 72.0459 53.9192 71.8992C53.9361 71.8858 53.953 71.8723 53.9704 71.8584C54.6767 71.2956 55.4101 70.7737 56.1726 70.2897C56.1992 70.2728 56.2258 70.2559 56.2532 70.2385C57.2672 69.5973 58.3243 69.033 59.3918 68.4869C59.4244 68.4702 59.457 68.4536 59.4906 68.4364C59.9483 68.2031 60.4112 67.9826 60.8781 67.7684C61.009 67.7083 61.1398 67.6479 61.2704 67.5873C61.9518 67.2713 62.6372 66.9654 63.3257 66.665C63.4927 66.5922 63.6596 66.5191 63.8264 66.4458C63.8818 66.4215 63.9371 66.3972 63.9925 66.3731C64.1306 66.3127 64.2681 66.2512 64.4048 66.1875C64.6789 66.0613 64.9392 65.9608 65.2337 65.8937C65.6156 65.7981 65.996 65.6858 66.2114 65.331C66.4907 64.7709 66.6349 64.1465 66.7892 63.5432C66.8761 63.2035 66.9839 62.8713 67.0943 62.5386C67.1468 62.3796 67.1971 62.2199 67.2477 62.0603C67.3405 61.7693 67.435 61.479 67.5302 61.1888C67.5433 61.1489 67.5564 61.1089 67.5699 61.0678C67.6334 60.8742 67.6971 60.6808 67.7609 60.4874C67.8858 60.1082 68.0068 59.7286 68.1158 59.3445C68.0929 59.3781 68.07 59.4116 68.0465 59.4462C67.6309 60.0557 67.199 60.6481 66.7192 61.2087C66.6408 61.3006 66.5654 61.3948 66.4901 61.4893C66.3596 61.6501 66.2173 61.7935 66.0695 61.938C66.0101 61.9974 65.9564 62.0553 65.9046 62.121C65.8256 62.2149 65.7413 62.2903 65.648 62.3695C65.5615 62.4446 65.4789 62.5232 65.3956 62.6019C64.6087 63.3308 63.5835 63.9358 62.4825 63.9205C61.784 63.886 61.1634 63.6067 60.6473 63.1431C60.6148 63.1149 60.5823 63.0867 60.5498 63.0585C60.3335 62.8683 60.1454 62.6647 59.9713 62.4349C59.957 62.4161 59.9428 62.3973 59.9281 62.378C59.3918 61.6674 59.3918 61.6674 59.3918 61.5335C59.3706 61.5335 59.3493 61.5335 59.3274 61.5335C59.3187 61.5564 59.3101 61.5793 59.3011 61.6028C59.2622 61.6965 59.2177 61.7837 59.1695 61.8729C59.151 61.9072 59.1326 61.9414 59.1135 61.9767C59.0938 62.0131 59.0741 62.0494 59.0538 62.0868C59.0332 62.1249 59.0126 62.1629 58.9921 62.201C58.8413 62.4794 58.6888 62.7569 58.534 63.0331C58.485 63.1206 58.4362 63.2082 58.3875 63.2959C58.1153 63.7842 57.8395 64.2703 57.5569 64.7527C57.5308 64.7973 57.5308 64.7973 57.5042 64.8428C57.0137 65.6772 56.4759 66.4982 55.8829 67.2636C55.8592 67.2943 55.8355 67.3251 55.8111 67.3567C55.7503 67.4339 55.6883 67.51 55.6254 67.5856C55.5984 67.6181 55.5714 67.6506 55.5437 67.6841C55.1194 68.1925 54.6728 68.6959 54.1446 69.0986C54.1278 69.1115 54.111 69.1245 54.0937 69.1379C53.8234 69.3455 53.5442 69.5103 53.2345 69.6524C53.1885 69.6736 53.1428 69.6957 53.0973 69.718C52.7282 69.8857 52.262 69.9551 51.859 69.9677C51.8368 69.9686 51.8146 69.9694 51.7917 69.9703C50.8431 70.0018 49.9658 69.7926 49.248 69.1376C48.4222 68.3578 48.0707 67.2119 47.8913 66.1208C47.8865 66.0915 47.8816 66.0622 47.8766 66.032C47.7757 65.3713 47.7586 64.7097 47.7606 64.0425C47.7606 64.0001 47.7607 63.9578 47.7607 63.9142C47.7621 63.213 47.7874 62.52 47.8672 61.8232C47.8699 61.7989 47.8726 61.7746 47.8755 61.7495C48.1036 59.7264 48.3956 57.2898 49.3158 55.4493C48.8838 55.6486 48.4896 55.8964 48.0925 56.1575C48.0493 56.1858 48.0493 56.1858 48.0053 56.2147C47.6878 56.4231 47.3738 56.6362 47.0624 56.8536C47.0223 56.8817 47.0223 56.8817 46.9813 56.9102C46.9115 56.9593 46.842 57.009 46.7727 57.0589C46.743 57.0799 46.7133 57.1009 46.6828 57.1225C46.5923 57.2055 46.5334 57.2995 46.4729 57.4049C46.4542 57.4368 46.4542 57.4368 46.4351 57.4694C46.3132 57.6805 46.2035 57.897 46.0978 58.1166C46.0646 58.1853 46.0309 58.2536 45.9972 58.322C45.8204 58.6838 45.658 59.0516 45.4968 59.4205C45.119 60.2854 44.7341 61.1333 44.2617 61.952C44.2431 61.9843 44.2245 62.0167 44.2053 62.05C44.0949 62.2411 43.9834 62.4315 43.8714 62.6217C43.8063 62.7327 43.7416 62.8441 43.677 62.9555C43.262 63.6702 42.8176 64.3621 42.3604 65.0505C42.3414 65.0792 42.3223 65.1078 42.3027 65.1374C41.4414 66.4355 40.4763 67.803 39.272 68.8088C39.2551 68.823 39.2382 68.8371 39.2208 68.8516C38.3255 69.5954 37.4542 69.9889 36.2647 69.8974C35.601 69.822 34.9384 69.5084 34.4432 69.0664C34.4165 69.0426 34.3897 69.0189 34.3621 68.9944C33.6401 68.3156 33.3193 67.2096 33.0429 66.2878C33.0277 66.2376 33.0277 66.2376 33.0123 66.1863C32.9828 66.0844 32.9562 65.9822 32.9302 65.8794C32.9217 65.8466 32.9132 65.8139 32.9045 65.7802C32.8083 65.3488 32.8181 64.9134 32.8174 64.4735C32.8171 64.3585 32.8162 64.2435 32.8154 64.1285C32.814 63.9116 32.8131 63.6946 32.8124 63.4777C32.8115 63.2303 32.8101 62.983 32.8086 62.7357C32.8056 62.2276 32.8033 61.7196 32.8015 61.2116C32.7507 61.267 32.7001 61.3224 32.6494 61.3778C32.6071 61.4241 32.6071 61.4241 32.5639 61.4713C32.4604 61.5871 32.3626 61.7067 32.265 61.8274C32.1398 61.9813 32.0111 62.1322 31.8824 62.2833C31.835 62.3392 31.7879 62.3953 31.7409 62.4515C31.1059 63.207 30.3903 63.836 29.3891 64.0123C28.5117 64.0643 27.6499 63.928 26.9574 63.343C26.5042 62.9359 26.1975 62.5037 25.9446 61.952C25.9274 61.9153 25.9103 61.8786 25.8926 61.8407C25.5478 61.0734 25.3837 60.2326 25.2364 59.4089C25.1648 59.4017 25.1648 59.4017 25.1037 59.4697C25.0613 59.5124 25.0613 59.5124 25.0181 59.556C25.0025 59.5716 24.9869 59.5873 24.9708 59.6034C24.9189 59.6555 24.8673 59.7078 24.8157 59.7601C24.7796 59.7964 24.7435 59.8326 24.7073 59.8689C24.6119 59.9647 24.5167 60.0607 24.4215 60.1568C24.2699 60.3098 24.1181 60.4626 23.9662 60.6152C23.9134 60.6683 23.8607 60.7216 23.8081 60.7748C23.6517 60.9325 23.4944 61.0874 23.3251 61.2314C23.2429 61.3014 23.1646 61.3754 23.0856 61.449C22.9374 61.5859 22.7848 61.7152 22.6275 61.8416C22.5378 61.9153 22.4505 61.9911 22.3634 62.0678C22.1089 62.2917 21.8452 62.4997 21.5739 62.7027C21.5027 62.7564 21.4322 62.8109 21.3617 62.8656C19.1985 64.5333 16.5016 66.0053 13.7118 66.0725C13.6865 66.0732 13.6613 66.0739 13.6353 66.0745C11.4493 66.1242 9.34285 65.3382 7.73128 63.8525C7.66653 63.7932 7.60023 63.7367 7.53297 63.6803C6.84332 63.0748 6.37375 62.2556 5.9159 61.473C5.81754 61.3053 5.71835 61.1381 5.61918 60.9708C5.58636 60.9155 5.55357 60.8601 5.52078 60.8048C5.49007 60.7529 5.49007 60.7529 5.45874 60.7001C5.43908 60.6668 5.41941 60.6336 5.39915 60.5994C5.36178 60.5367 5.3241 60.4742 5.28607 60.4119C5.26894 60.3838 5.25181 60.3558 5.23416 60.3268C5.21917 60.3025 5.20419 60.2782 5.18875 60.2532C5.14663 60.1776 5.11481 60.1014 5.08439 60.0205C4.98878 60.0205 4.89317 60.0205 4.79466 60.0205C4.79091 60.0659 4.78715 60.1112 4.78328 60.1579C4.76414 60.3481 4.72716 60.5322 4.68702 60.7189C4.67928 60.7556 4.67154 60.7922 4.66357 60.83C4.6422 60.9311 4.62067 61.0322 4.59908 61.1332C4.57569 61.2429 4.55249 61.3526 4.52928 61.4623C4.48892 61.6529 4.44844 61.8435 4.40787 62.034C4.34893 62.3109 4.29018 62.5878 4.23148 62.8648C4.15824 63.2103 4.08497 63.5558 4.0116 63.9013C3.84634 64.6794 3.68153 65.4577 3.51702 66.236C3.4924 66.3525 3.46778 66.469 3.44316 66.5854C3.40079 66.7859 3.35843 66.9863 3.31606 67.1867C3.20618 67.7066 3.09628 68.2265 2.9863 68.7463C2.96037 68.8689 2.93445 68.9915 2.90854 69.1141C2.88473 69.2267 2.8609 69.3393 2.83707 69.4519C2.8244 69.5118 2.81174 69.5717 2.79909 69.6316C2.78423 69.7018 2.7693 69.7719 2.75428 69.842C2.74151 69.9021 2.72904 69.9622 2.71695 70.0223C2.63732 70.4084 2.28641 70.6564 1.97185 70.867C1.64358 71.0718 1.34904 71.1282 0.963849 71.0945C0.682892 71.0142 0.476096 70.8215 0.322907 70.5784C-0.0610999 69.8674 -0.0205713 69.0757 0.0363251 68.2938C0.0384379 68.2646 0.0405517 68.2353 0.0427285 68.2052C0.29712 64.7348 1.0284 61.3093 5.69603 44.4719C5.70327 44.4487 5.71052 44.4254 5.71798 44.4014C6.12248 43.1029 6.53142 41.8059 6.95151 40.5123C6.96422 40.4732 6.97693 40.434 6.99003 40.3937C7.56248 38.6315 8.15228 36.876 8.7844 35.1342C8.8266 35.0177 8.86854 34.9012 8.91048 34.7846C9.42199 33.364 9.96577 31.9545 10.557 30.5651C10.5664 30.543 10.5758 30.5209 10.5854 30.4981C13.1311 24.5036 13.1311 24.5036 14.5762 23.9091C15.3062 23.6339 16.042 23.6885 16.6724 24.1671ZM99.3417 50.1055C99.3258 50.1208 99.3098 50.136 99.2934 50.1518C99.0768 50.3596 98.884 50.5785 98.6979 50.8137C98.6679 50.8505 98.6378 50.8873 98.6076 50.9241C97.7375 51.9897 96.9875 53.1977 96.3902 54.4352C96.3743 54.4681 96.3584 54.5009 96.3421 54.5347C96.1838 54.8502 96.1838 54.8502 96.1226 55.1917C96.3172 55.2026 96.4797 55.1643 96.6658 55.1093C96.6956 55.1005 96.7253 55.0918 96.7559 55.0828C97.6405 54.8164 98.3894 54.3509 99.052 53.7109C99.084 53.6809 99.1161 53.651 99.1481 53.621C100.017 52.7951 100.694 51.5045 100.729 50.2926C100.73 50.1738 100.73 50.0552 100.73 49.9364C100.73 49.8957 100.73 49.8549 100.73 49.813C100.73 49.7739 100.73 49.7348 100.73 49.6945C100.73 49.6413 100.73 49.6413 100.73 49.5871C100.727 49.5072 100.717 49.4411 100.694 49.365C100.14 49.324 99.712 49.7452 99.3417 50.1055ZM85.2096 50.8137C85.1087 50.9285 85.0139 51.0473 84.9199 51.1678C84.9045 51.1871 84.8892 51.2064 84.8734 51.2263C84.1809 52.099 83.6497 53.0733 83.1493 54.065C83.1312 54.1009 83.1312 54.1009 83.1127 54.1375C83.0234 54.3144 82.9343 54.4915 82.8455 54.6686C82.8332 54.6931 82.8209 54.7175 82.8083 54.7427C82.7737 54.8117 82.7392 54.8808 82.7048 54.9498C82.6944 54.9706 82.6839 54.9914 82.6732 55.0129C82.6233 55.0983 82.6233 55.0983 82.6021 55.1917C83.4898 55.2563 84.4609 54.682 85.113 54.1294C85.2451 54.0147 85.3731 53.8965 85.4993 53.7753C85.5176 53.7579 85.5359 53.7404 85.5548 53.7225C85.8204 53.4684 86.061 53.2078 86.2719 52.9061C86.286 52.8861 86.3002 52.8661 86.3147 52.8455C86.8167 52.1266 87.1009 51.3468 87.2699 50.4918C87.2761 50.4607 87.2823 50.4296 87.2887 50.3976C87.3067 50.2637 87.3105 50.1317 87.3121 49.9968C87.313 49.9707 87.314 49.9445 87.3149 49.9176C87.3169 49.7328 87.2899 49.578 87.1733 49.4294C86.6809 49.1974 85.5134 50.4924 85.2096 50.8137ZM66.0024 51.9362C65.9382 51.9944 65.8726 52.0499 65.806 52.1054C65.4805 52.3893 65.195 52.7284 64.9288 53.0671C64.8937 53.1109 64.8586 53.1547 64.8234 53.1985C64.569 53.5181 64.3375 53.8456 64.124 54.1938C64.1111 54.2146 64.0982 54.2354 64.0849 54.2569C63.0786 55.8866 62.2654 57.8088 62.0959 59.7308C62.0924 59.768 62.0889 59.8052 62.0852 59.8436C62.0321 60.4782 62.0584 61.1118 62.2046 61.7327C62.2109 61.7596 62.2172 61.7865 62.2238 61.8143C62.2925 62.1313 62.2925 62.1313 62.45 62.4027C62.7239 62.4481 62.9298 62.3535 63.1583 62.2095C63.2821 62.1191 63.3976 62.0214 63.5124 61.9198C63.5362 61.8995 63.56 61.8792 63.5845 61.8583C63.78 61.6882 63.9626 61.505 64.1461 61.3223C64.1722 61.2964 64.1982 61.2705 64.225 61.2439C64.3804 61.0881 64.5285 60.9283 64.6713 60.7609C64.7037 60.7234 64.7362 60.686 64.7687 60.6485C64.9554 60.4319 65.1389 60.2136 65.3151 59.9883C65.3306 59.9686 65.3461 59.9489 65.362 59.9286C65.4774 59.7817 65.5919 59.6343 65.7059 59.4864C65.7445 59.4364 65.7832 59.3865 65.822 59.3368C66.53 58.4269 67.1356 57.4375 67.7321 56.4525C67.7969 56.3457 67.862 56.2391 67.9272 56.1326C69.2415 54.2927 69.2415 54.2927 69.8823 52.2603C69.816 52.0347 69.6686 51.8392 69.5322 51.6507C69.5088 51.6182 69.4853 51.5857 69.4612 51.5522C69.1839 51.192 68.8001 50.9057 68.3411 50.8459C67.4387 50.7589 66.6309 51.3613 66.0024 51.9362ZM31.5231 53.0978C31.4323 53.2062 31.3464 53.3179 31.263 53.4322C31.2241 53.4855 31.1845 53.5382 31.1447 53.591C29.5709 55.7058 28.7869 58.5809 28.911 62.0417C28.9366 62.206 28.9685 62.3688 29.0028 62.5315C29.6839 62.1564 30.3148 61.5521 30.8056 60.9541C30.8265 60.9289 30.8265 60.9289 30.8479 60.9033C31.4894 60.134 32.0389 59.3073 32.5439 58.4431C32.5589 58.4177 32.5738 58.3923 32.5892 58.3661C33.2552 57.2307 33.8456 56.05 34.3832 54.8491C34.4568 54.685 34.5319 54.5218 34.6077 54.3588C34.8136 53.9155 35.0166 53.4712 35.2018 53.0188C35.2169 52.9831 35.2321 52.9474 35.2477 52.9107C35.3565 52.6375 35.3755 52.4011 35.2621 52.1255C35.1153 51.8688 34.8805 51.7345 34.6042 51.6507C33.386 51.3404 32.2666 52.2485 31.5231 53.0978ZM65.1157 67.3127C65.0885 67.3247 65.0614 67.3367 65.0335 67.349C64.9435 67.3888 64.8537 67.4288 64.7638 67.4689C64.7008 67.4968 64.6379 67.5248 64.5749 67.5527C64.4128 67.6248 64.2507 67.697 64.0887 67.7692C64.0006 67.8085 63.9125 67.8477 63.8243 67.8869C62.4505 68.4977 61.0785 69.1263 59.764 69.8579C59.6806 69.9039 59.5967 69.949 59.5125 69.9938C59.0745 70.2278 58.6499 70.4815 58.2272 70.7417C58.1232 70.8056 58.019 70.8689 57.9141 70.9314C56.4271 71.8195 55.0637 72.9112 53.8387 74.1325C53.822 74.1492 53.8053 74.1658 53.7881 74.1829C53.5994 74.3709 53.4154 74.5609 53.2432 74.7643C53.2146 74.7972 53.186 74.8301 53.1573 74.8629C51.3649 76.9527 50.2676 79.6319 50.185 82.3937C50.1837 82.4312 50.1823 82.4686 50.181 82.5072C50.1604 83.6535 50.3665 84.8323 50.861 85.8705C50.8706 85.8907 50.8803 85.9109 50.8902 85.9318C51.0452 86.251 51.2438 86.5304 51.5048 86.7718C51.5313 86.798 51.5313 86.798 51.5583 86.8246C51.9268 87.1727 52.391 87.2985 52.8891 87.2869C53.8509 87.2118 54.7204 86.603 55.4322 85.9992C55.4654 85.9715 55.4986 85.9438 55.5318 85.9161C55.7919 85.6976 56.037 85.4681 56.2759 85.2266C56.3322 85.1697 56.3887 85.1131 56.4453 85.0565C56.6294 84.8718 56.8094 84.6858 56.9774 84.4862C57.0057 84.4537 57.0339 84.4212 57.0622 84.3888C57.2842 84.1295 57.4929 83.8617 57.6982 83.5891C57.7478 83.5234 57.7977 83.458 57.8478 83.3926C58.7689 82.1835 59.5549 80.8647 60.2739 79.5277C60.3305 79.4226 60.3874 79.3176 60.4442 79.2126C60.8173 78.5222 61.1663 77.8235 61.4938 77.1103C61.5541 76.9791 61.6148 76.848 61.6758 76.717C62.9232 74.039 63.9536 71.2687 65.1867 67.966C65.2104 67.9021 65.2341 67.8381 65.2579 67.7742C65.2899 67.6881 65.3218 67.6019 65.3536 67.5158C65.3675 67.4783 65.3675 67.4783 65.3818 67.44C65.4278 67.3227 65.4278 67.3227 65.4439 67.1993C65.3271 67.1993 65.2211 67.2656 65.1157 67.3127Z" fill="white"/>
<path d="M54.4812 0.00960149C54.5021 0.00938995 54.5231 0.00917841 54.5447 0.00896047C54.614 0.00832626 54.6833 0.00794995 54.7526 0.0076288C54.7763 0.00749761 54.8001 0.00736641 54.8245 0.00723123C54.9503 0.00656002 55.076 0.00609955 55.2017 0.00579759C55.3312 0.00544212 55.4606 0.00433548 55.59 0.00305576C55.6899 0.00221104 55.7898 0.00194428 55.8897 0.00182894C55.9374 0.00167283 55.985 0.00130047 56.0327 0.00070101C56.331 -0.00281567 56.5662 -0.00134092 56.7944 0.214486C56.9763 0.51768 56.9586 0.829427 56.9566 1.17025C56.9567 1.22855 56.9567 1.28685 56.9568 1.34514C56.957 1.47024 56.9569 1.59534 56.9565 1.72044C56.956 1.91837 56.9563 2.11629 56.9567 2.31422C56.9576 2.84135 56.9576 3.36847 56.957 3.89559C56.9566 4.24225 56.9566 4.5889 56.9576 4.93555C56.9581 5.1322 56.9578 5.32884 56.957 5.52549C56.9567 5.6479 56.9571 5.77031 56.9576 5.89272C56.9577 5.94935 56.9575 6.00598 56.9571 6.06261C56.9453 6.4286 56.9453 6.4286 57.0819 6.75893C57.3066 6.95303 57.4929 6.95483 57.782 6.95236C57.8454 6.95258 57.8454 6.95258 57.9101 6.95282C58.0271 6.95322 58.1441 6.95282 58.2611 6.9523C58.3874 6.95187 58.5137 6.95219 58.64 6.95243C58.8588 6.95274 59.0776 6.9526 59.2964 6.95216C59.6132 6.95154 59.93 6.95174 60.2467 6.95218C60.7611 6.95287 61.2756 6.95309 61.79 6.95291C61.8208 6.9529 61.8516 6.95289 61.8833 6.95288C62.133 6.95279 62.3826 6.95268 62.6323 6.95257C62.8503 6.95248 63.0684 6.95239 63.2864 6.95232C63.3171 6.95231 63.3478 6.95229 63.3795 6.95228C63.8919 6.95212 64.4042 6.95247 64.9166 6.95317C65.2325 6.95358 65.5483 6.95353 65.8641 6.9529C66.0807 6.95249 66.2972 6.95254 66.5138 6.95294C66.6386 6.95316 66.7634 6.95316 66.8883 6.9526C67.0238 6.952 67.1593 6.95239 67.2949 6.95287C67.334 6.95253 67.3732 6.95219 67.4135 6.95185C67.7113 6.95419 67.9915 6.99519 68.2124 7.21015C68.4667 7.545 68.4342 8.01744 68.4055 8.41734C68.3665 8.69279 68.291 8.88846 68.0896 9.08532C67.8605 9.24708 67.6246 9.23116 67.3534 9.22979C67.3122 9.22984 67.271 9.2299 67.2286 9.22995C67.1146 9.23008 67.0006 9.22982 66.8866 9.22949C66.7635 9.22921 66.6404 9.22931 66.5173 9.22937C66.3041 9.22943 66.0909 9.22927 65.8777 9.229C65.5404 9.22857 65.2032 9.22882 64.8659 9.22917C64.7505 9.22928 64.635 9.22939 64.5195 9.2295C64.4762 9.22954 64.4762 9.22954 64.4321 9.22958C64.1038 9.22987 63.7755 9.23003 63.4472 9.23013C63.4022 9.23014 63.4022 9.23014 63.3563 9.23016C62.8703 9.23029 62.3843 9.22993 61.8983 9.22944C61.3989 9.22896 60.8995 9.22922 60.4001 9.23011C60.0923 9.23063 59.7845 9.23054 59.4767 9.22967C59.2657 9.22913 59.0546 9.22929 58.8435 9.22999C58.7219 9.23038 58.6003 9.23045 58.4786 9.22967C58.3465 9.22884 58.2143 9.22951 58.0822 9.23031C58.0441 9.22982 58.0061 9.22934 57.9669 9.22885C57.6796 9.23251 57.4098 9.30388 57.2015 9.51359C57.0246 9.7325 56.9629 9.94389 56.9639 10.2197C56.9637 10.2478 56.9634 10.2759 56.9631 10.3049C56.9624 10.3972 56.9623 10.4895 56.9624 10.5819C56.9621 10.6464 56.9619 10.711 56.9616 10.7756C56.9612 10.9108 56.9611 11.046 56.9613 11.1813C56.9615 11.3539 56.9605 11.5265 56.9592 11.6992C56.9584 11.8325 56.9583 11.9659 56.9584 12.0993C56.9584 12.1629 56.9581 12.2265 56.9575 12.2901C56.9473 12.8107 56.9473 12.8107 57.202 13.2497C57.3794 13.4202 57.5826 13.5209 57.8292 13.5395C58.1132 13.5268 58.3743 13.3882 58.6273 13.2702C59.5968 12.8206 60.6768 12.6041 61.7418 12.5701C61.7791 12.5687 61.8163 12.5674 61.8546 12.566C63.4151 12.5381 65.0903 12.9553 66.2462 14.0529C66.314 14.1178 66.314 14.1178 66.3958 14.181C66.5134 14.2758 66.6045 14.3845 66.6994 14.5016C66.7122 14.5175 66.7251 14.5333 66.7384 14.5497C67.5124 15.5186 67.8546 16.7456 67.7939 17.9783C67.7925 18.0052 67.7912 18.0322 67.7899 18.06C67.7072 19.5518 67.0548 21.0034 65.94 22.0117C65.4281 22.4577 64.7809 22.7497 64.0918 22.7105C63.8362 22.6839 63.6066 22.5799 63.4241 22.3966C63.3112 22.2435 63.3012 22.096 63.301 21.9097C63.346 21.6615 63.4857 21.4966 63.6592 21.3222C64.6384 20.3038 65.086 19.2074 65.0655 17.7869C65.0451 17.0243 64.815 16.2804 64.3172 15.6927C64.3004 15.6713 64.2837 15.6499 64.2665 15.6279C63.7649 15.0097 62.9189 14.7075 62.1538 14.6122C60.961 14.4882 59.719 14.8034 58.7802 15.5639C58.7625 15.5778 58.7449 15.5918 58.7267 15.6061C57.7686 16.3654 57.1332 17.4799 56.9845 18.698C56.9685 18.8921 56.9722 19.0873 56.9719 19.282C56.9717 19.3326 56.9714 19.3832 56.9712 19.4338C56.9707 19.5428 56.9704 19.6518 56.9701 19.7608C56.9696 19.9356 56.9688 20.1103 56.968 20.2851C56.9658 20.7515 56.964 21.218 56.9624 21.6844C56.9573 23.1959 56.9436 24.7053 56.8848 26.2158C56.8811 26.3094 56.8776 26.4029 56.8742 26.4964C56.8639 26.7742 56.8527 27.0519 56.8401 27.3296C56.8354 27.4338 56.831 27.5381 56.8267 27.6423C56.7954 28.3917 56.7387 29.1394 56.5992 29.8771C56.5951 29.899 56.5911 29.9208 56.5869 29.9433C56.4119 30.8787 56.1352 31.799 55.722 32.6577C55.7116 32.6795 55.7012 32.7013 55.6904 32.7237C55.6178 32.8749 55.5422 33.0242 55.4644 33.1728C55.4538 33.1932 55.4432 33.2137 55.4322 33.2348C55.1439 33.7841 54.7817 34.287 54.3699 34.7502C54.3532 34.7695 54.3366 34.7889 54.3194 34.8089C53.9574 35.2286 53.563 35.6152 53.1144 35.9413C53.0873 35.9615 53.0601 35.9817 53.0321 36.0025C52.6457 36.2823 52.2265 36.5129 51.7946 36.7139C51.7719 36.7244 51.7492 36.735 51.7258 36.7459C49.6661 37.69 47.2203 37.7293 45.0987 36.9714C43.3787 36.3168 42.0138 35.1018 41.2357 33.4303C41.2196 33.3957 41.2196 33.3957 41.2031 33.3604C40.4972 31.8227 40.3586 30.0082 40.9359 28.4084C41.1014 27.9728 41.3261 27.5457 41.622 27.1851C41.6444 27.1571 41.6668 27.1291 41.6899 27.1002C41.9331 26.8117 42.2177 26.5988 42.5998 26.5634C42.8447 26.5845 43.0309 26.6598 43.2101 26.8307C43.3357 26.9819 43.3695 27.1463 43.3644 27.34C43.3386 27.5474 43.262 27.7381 43.1908 27.9333C42.6643 29.3866 42.8745 31.0355 43.5133 32.4203C44.1137 33.6758 45.1471 34.7472 46.4724 35.222C47.0931 35.4326 47.7258 35.5367 48.3803 35.5348C48.4048 35.5348 48.4294 35.5348 48.4547 35.5347C49.6476 35.5303 50.7867 35.1437 51.698 34.3639C51.737 34.3307 51.737 34.3307 51.7769 34.297C53.1284 33.1173 53.6554 31.2398 53.7813 29.5042C53.8198 28.8916 53.8044 28.2743 53.8034 27.6609C53.8033 27.5311 53.8033 27.4012 53.8034 27.2714C53.8034 27.2496 53.8034 27.2279 53.8034 27.2055C53.8035 27.1613 53.8035 27.1171 53.8035 27.0729C53.8038 26.6617 53.8035 26.2506 53.803 25.8395C53.8025 25.4877 53.8026 25.1359 53.8031 24.7841C53.8036 24.3733 53.8038 23.9625 53.8035 23.5517C53.8035 23.5078 53.8034 23.464 53.8034 23.4202C53.8034 23.3878 53.8034 23.3878 53.8034 23.3548C53.8033 23.2038 53.8034 23.0527 53.8036 22.9017C53.8039 22.6985 53.8037 22.4952 53.8032 22.292C53.803 22.2177 53.8031 22.1434 53.8033 22.069C53.8162 21.3613 53.8162 21.3613 53.5007 20.7468C53.3884 20.6465 53.2799 20.6292 53.1329 20.6352C52.6945 20.7144 52.3298 21.0896 52.0058 21.3745C50.9303 22.3177 49.5711 22.6851 48.1569 22.6863C48.1234 22.6863 48.1234 22.6863 48.0892 22.6864C46.0565 22.6833 44.0379 21.9961 42.5656 20.5737C41.1784 19.152 40.5852 17.1235 40.5838 15.1756C40.5838 15.1487 40.5838 15.1219 40.5838 15.0942C40.5865 12.9429 41.3179 10.8797 42.8131 9.31871C42.8473 9.28248 42.8473 9.28248 42.8823 9.24552C43.0505 9.07179 43.2354 8.92148 43.4247 8.77145C43.4708 8.73366 43.4708 8.73366 43.5178 8.69512C44.7972 7.66992 46.4248 7.19399 48.0282 7.0009C48.049 6.99824 48.0698 6.99557 48.0913 6.99283C48.3422 6.96384 48.5923 6.96381 48.8446 6.96363C48.8938 6.96348 48.943 6.96332 48.9922 6.96314C49.0975 6.96278 49.2029 6.9625 49.3082 6.9623C49.4749 6.96195 49.6416 6.9613 49.8083 6.96059C50.282 6.9586 50.7558 6.95685 51.2295 6.95579C51.4916 6.9552 51.7537 6.95427 52.0158 6.95296C52.1544 6.95228 52.2929 6.95178 52.4314 6.95171C52.5615 6.95164 52.6916 6.95113 52.8217 6.95028C52.8694 6.95005 52.917 6.94998 52.9647 6.95009C53.0299 6.95021 53.0951 6.94969 53.1603 6.94914C53.1967 6.94903 53.2331 6.94892 53.2707 6.94881C53.4375 6.92857 53.5385 6.86774 53.6537 6.74739C53.7749 6.57907 53.7999 6.44549 53.7986 6.2409C53.7987 6.21649 53.7988 6.19208 53.7989 6.16694C53.7991 6.08529 53.7989 6.00365 53.7987 5.922C53.7988 5.8634 53.7989 5.80481 53.799 5.74621C53.7993 5.62007 53.7994 5.49394 53.7993 5.3678C53.7992 5.16826 53.7997 4.96872 53.8002 4.76918C53.8018 4.20177 53.8025 3.63437 53.8027 3.06697C53.8029 2.75355 53.8034 2.44015 53.8045 2.12674C53.8052 1.92847 53.8052 1.73022 53.8049 1.53196C53.8048 1.40845 53.8053 1.28496 53.8059 1.16146C53.806 1.10431 53.806 1.04716 53.8057 0.990006C53.8053 0.911781 53.8058 0.833599 53.8064 0.755376C53.8061 0.732939 53.8058 0.710501 53.8055 0.687383C53.8086 0.487751 53.8788 0.322965 54.0099 0.174372C54.0285 0.159723 54.047 0.145075 54.0661 0.129982C54.0847 0.114753 54.1034 0.0995236 54.1226 0.0838326C54.2383 0.00623001 54.3461 0.0107313 54.4812 0.00960149ZM49.9979 9.21609C49.9589 9.21752 49.9199 9.21894 49.8798 9.2204C48.1764 9.28408 46.4102 9.43355 45.0987 10.6386C45.0707 10.664 45.0426 10.6894 45.0137 10.7155C43.9397 11.7355 43.5637 13.3002 43.5229 14.7307C43.5047 15.8253 43.7389 16.9534 44.2619 17.919C44.2929 17.9764 44.3229 18.0343 44.3528 18.0922C44.8672 19.0498 45.7453 19.7777 46.7842 20.0939C48.2315 20.5074 49.7925 20.3305 51.111 19.6018C51.9687 19.1062 52.6549 18.4036 53.1144 17.5276C53.1336 17.4918 53.1527 17.4561 53.1724 17.4192C53.7756 16.2181 53.8258 14.754 53.8303 13.4361C53.8305 13.4032 53.8306 13.3702 53.8307 13.3363C53.8314 13.1622 53.8319 12.9882 53.8322 12.8141C53.8325 12.636 53.8336 12.4579 53.8349 12.2798C53.8358 12.1412 53.836 12.0026 53.8361 11.864C53.8363 11.7983 53.8367 11.7327 53.8373 11.6671C53.8432 10.9839 53.7466 10.3876 53.2529 9.87477C53.2285 9.85062 53.204 9.82646 53.1788 9.80158C53.1457 9.76735 53.1457 9.76735 53.1118 9.73242C52.3217 8.96725 50.9987 9.17957 49.9979 9.21609Z" fill="white"/>
<path d="M94.8349 40.5439C96.1203 40.5439 97.4057 40.5439 98.7301 40.5439C98.8682 40.8414 99.0063 41.1388 99.1486 41.4453C99.2244 41.6068 99.3001 41.7682 99.3763 41.9294C99.5599 42.3183 99.742 42.7078 99.9227 43.0981C100.088 43.4551 100.256 43.8111 100.424 44.167C100.726 44.8064 100.726 44.8064 100.726 44.8898C100.029 45.0395 98.9265 45.2313 98.2764 44.8661C98.1752 44.7873 98.0942 44.7011 98.0138 44.6021C97.9986 44.5837 97.9834 44.5654 97.9677 44.5464C97.8527 44.4068 97.742 44.264 97.6326 44.12C97.5245 43.9779 97.4126 43.839 97.2996 43.7007C97.1685 43.5403 97.0387 43.3791 96.9113 43.2159C96.7844 43.0533 96.6553 42.8927 96.525 42.733C96.3799 42.5552 96.2369 42.3759 96.0957 42.195C95.9829 42.051 95.868 41.9089 95.7524 41.7672C95.5916 41.5701 95.4331 41.3715 95.2767 41.1709C95.2144 41.0912 95.1515 41.012 95.0883 40.933C95.0718 40.9124 95.0553 40.8917 95.0384 40.8704C95.0066 40.8306 94.9748 40.7909 94.9428 40.7513C94.8349 40.6156 94.8349 40.6156 94.8349 40.5439Z" fill="white"/>
</svg>
